<svg width="16" height="16" viewBox="0 0 16 16" fill="none" xmlns="http://www.w3.org/2000/svg">
<path d="M9.89666 3.75521C9.76666 3.62521 9.55532 3.62521 9.42532 3.75521C9.29532 3.88521 9.29532 4.09655 9.42532 4.22655L12.8633 7.66455H2.33199C2.14799 7.66455 1.99866 7.81388 1.99866 7.99788C1.99866 8.18188 2.14799 8.33121 2.33199 8.33121H12.8633L9.42532 11.7692C9.29532 11.8992 9.29532 12.1105 9.42532 12.2405C9.49066 12.3059 9.57599 12.3379 9.66132 12.3379C9.74666 12.3379 9.83199 12.3052 9.89732 12.2405L13.9047 8.23322C13.9673 8.17055 14.002 8.08588 14.002 7.99722C14.002 7.90855 13.9667 7.82388 13.9047 7.76122L9.89732 3.75455L9.89666 3.75521Z" fill="white"/>
</svg>
