<svg width="25" height="24" viewBox="0 0 25 24" fill="none" xmlns="http://www.w3.org/2000/svg">
<path d="M15.345 5.63429C15.15 5.43929 14.833 5.43929 14.638 5.63429C14.443 5.82929 14.443 6.14629 14.638 6.34129L19.795 11.4983H3.99805C3.72205 11.4983 3.49805 11.7223 3.49805 11.9983C3.49805 12.2743 3.72205 12.4983 3.99805 12.4983H19.795L14.638 17.6553C14.443 17.8503 14.443 18.1673 14.638 18.3623C14.736 18.4603 14.864 18.5083 14.992 18.5083C15.12 18.5083 15.248 18.4593 15.346 18.3623L21.357 12.3513C21.451 12.2573 21.503 12.1303 21.503 11.9973C21.503 11.8643 21.45 11.7373 21.357 11.6433L15.346 5.63329L15.345 5.63429Z" fill="white"/>
</svg>
