<svg width="40" height="24" viewBox="0 0 40 24" fill="none" xmlns="http://www.w3.org/2000/svg">
<path d="M22.202 13.5H17.799C15.704 13.5 14 15.204 14 17.298C14 17.574 14.224 17.798 14.5 17.798C14.776 17.798 15 17.574 15 17.298C15 15.755 16.256 14.5 17.799 14.5H22.202C23.745 14.5 25 15.755 25 17.298C25 17.574 25.224 17.798 25.5 17.798C25.776 17.798 26 17.574 26 17.298C26 15.204 24.296 13.5 22.202 13.5Z" fill="white"/>
<path d="M20 12.5C21.93 12.5 23.5 10.93 23.5 9C23.5 7.07 21.93 5.5 20 5.5C18.07 5.5 16.5 7.07 16.5 9C16.5 10.93 18.07 12.5 20 12.5ZM20 6.5C21.379 6.5 22.5 7.622 22.5 9C22.5 10.378 21.379 11.5 20 11.5C18.621 11.5 17.5 10.378 17.5 9C17.5 7.622 18.621 6.5 20 6.5Z" fill="white"/>
<path d="M20 2C14.486 2 10 6.486 10 12C10 17.514 14.486 22 20 22C25.514 22 30 17.514 30 12C30 6.486 25.513 2 20 2ZM20 21C15.037 21 11 16.962 11 12C11 7.038 15.037 3 20 3C24.963 3 29 7.038 29 12C29 16.962 24.963 21 20 21Z" fill="white"/>
</svg>
