<svg width="24" height="25" viewBox="0 0 24 25" fill="none" xmlns="http://www.w3.org/2000/svg">
<path d="M16.248 4.69409C14.976 4.69409 13.779 5.19209 12.881 6.09509L11.999 6.97709L11.106 6.08509C10.21 5.18809 9.01699 4.69409 7.74799 4.69409C5.12899 4.69409 2.99799 6.82509 2.99799 9.44409C2.99799 10.5451 3.39299 11.6151 4.11099 12.4751C4.13599 12.5321 4.17199 12.5841 4.21599 12.6291L11.639 20.0521C11.733 20.1461 11.86 20.1981 11.993 20.1981C12.126 20.1981 12.253 20.1451 12.347 20.0521L19.769 12.6301C19.806 12.5931 19.835 12.5521 19.858 12.5071C20.594 11.6431 20.999 10.5601 20.999 9.44409C20.999 6.82509 18.868 4.69409 16.249 4.69409H16.248ZM19.028 11.9361C19.007 11.9591 18.989 11.9841 18.973 12.0111L11.993 18.9921L5.03399 12.0341C5.01499 11.9981 4.99299 11.9651 4.96599 11.9341C4.34199 11.2371 3.99799 10.3531 3.99799 9.44409C3.99799 7.37609 5.68099 5.69409 7.74799 5.69409C8.74999 5.69409 9.69099 6.08409 10.399 6.79209L11.645 8.03809C11.833 8.22609 12.165 8.22609 12.352 8.03809L13.588 6.80109C14.298 6.08709 15.242 5.69409 16.247 5.69409C18.314 5.69409 19.997 7.37609 19.997 9.44409C19.997 10.3551 19.652 11.2401 19.027 11.9361H19.028Z" fill="#8A42FB"/>
</svg>
