<svg width="24" height="24" viewBox="0 0 24 24" fill="none" xmlns="http://www.w3.org/2000/svg">
<path d="M13.0599 11.9988L18.5399 6.51877C18.8299 6.22877 18.8299 5.74877 18.5399 5.45877C18.2499 5.16877 17.7699 5.16877 17.4799 5.45877L11.9999 10.9388L6.51993 5.45877C6.22993 5.16877 5.74993 5.16877 5.45993 5.45877C5.16993 5.74877 5.16993 6.22877 5.45993 6.51877L10.9399 11.9988L5.45993 17.4788C5.16993 17.7688 5.16993 18.2488 5.45993 18.5388C5.60993 18.6888 5.79993 18.7588 5.98993 18.7588C6.17993 18.7588 6.36993 18.6888 6.51993 18.5388L11.9999 13.0588L17.4799 18.5388C17.6299 18.6888 17.8199 18.7588 18.0099 18.7588C18.1999 18.7588 18.3899 18.6888 18.5399 18.5388C18.8299 18.2488 18.8299 17.7688 18.5399 17.4788L13.0599 11.9988Z" fill="#343434"/>
</svg>
