<svg width="24" height="24" viewBox="0 0 24 24" fill="none" xmlns="http://www.w3.org/2000/svg">
<path d="M20.5 11.25H3.5C3.09 11.25 2.75 11.59 2.75 12C2.75 12.41 3.09 12.75 3.5 12.75H20.5C20.91 12.75 21.25 12.41 21.25 12C21.25 11.59 20.91 11.25 20.5 11.25Z" fill="white"/>
<path d="M20.5 17.26H3.5C3.09 17.26 2.75 17.6 2.75 18.01C2.75 18.42 3.09 18.76 3.5 18.76H20.5C20.91 18.76 21.25 18.42 21.25 18.01C21.25 17.6 20.91 17.26 20.5 17.26Z" fill="white"/>
<path d="M3.5 6.74H20.5C20.91 6.74 21.25 6.4 21.25 5.99C21.25 5.58 20.91 5.24 20.5 5.24H3.5C3.09 5.24 2.75 5.58 2.75 5.99C2.75 6.4 3.09 6.74 3.5 6.74Z" fill="white"/>
</svg>
